<svg enable-background="new 0 0 114 154.3" viewBox="0 0 114 154.3" xmlns="http://www.w3.org/2000/svg"><path d="m113.8.4h-114v154.3h114z" fill="#fff"/><path d="m112.2 2v151h-110.6v-151z"/><path d="m7.6 7.7h98.7v23h-98.7z" fill="#fff"/><path d="m7.8 36.4h98.6v89.8h-98.6z" fill="#fff"/><path d="m13.4 12.1c2.2 0 3.1.6 3.1 2.6v3c0 1.9-.9 2.6-2.9 2.6h-.5v6.1h-1.8v-14.3zm-.4 6.7h.3c1.1 0 1.3-.4 1.3-1.7v-1.9c0-1.3-.2-1.7-1.3-1.7h-.3z"/><path d="m19.9 12.1c2.1 0 3 .6 3 2.4v2.3c0 1.4-.5 2.1-2 2.2 1.6.1 2.1.8 2.1 2.4v5h-2v-5c0-1.3-.2-1.6-1.5-1.6h-.4v6.6h-1.8v-14.3zm-.7 6.2h.4c1.2 0 1.4-.4 1.4-1.6v-1.6c0-1.2-.3-1.6-1.4-1.6h-.4z"/><path d="m26.2 12.1v14.3h-1.9v-14.3z"/><path d="m28.8 12.1 1.3 12h.1l1.2-12h1.6l-1.8 14.3h-2.4l-2-14.3z"/><path d="m37.8 12.1 2.2 14.3h-2l-.5-3.6h-2.4l-.5 3.6h-1.6l2.3-14.3zm-2.4 9.2h2l-.9-7.6h-.1z"/><path d="m46 16h-1.8v-1c0-1.1-.2-1.7-.8-1.7-.8 0-.9.6-.9 2v7.8c0 1.4.1 2 .9 2 .6 0 .8-.5.8-1.6v-1.3h1.9v1.3c0 2.2-.6 3.1-2.7 3.1-2.2 0-2.7-1.1-2.7-3.8v-7.1c0-2.7.6-3.8 2.7-3.8s2.7.9 2.7 3.1v1z"/><path d="m47.8 12.1 1.3 6.3h.1l1.2-6.3h1.6l-2.2 8.3v5.9h-1.8v-5.9l-2-8.3z"/><path d="m60.8 16h-1.8v-1c0-1.1-.2-1.7-.8-1.7-.8 0-.9.6-.9 2v7.8c0 1.4.1 2 .9 2 .6 0 .8-.5.8-1.6v-1.3h1.9v1.3c0 2.2-.6 3.1-2.7 3.1-2.2 0-2.7-1.1-2.7-3.8v-7.1c0-2.7.6-3.8 2.7-3.8s2.7.9 2.7 3.1z"/><path d="m66.2 12.1v1.5h-2.4v4.5h2.3v1.5h-2.3v5.2h2.6v1.5h-4.4v-14.2z"/><path d="m69.8 12.1c2.1 0 3 .6 3 2.4v2.3c0 1.4-.5 2.1-2 2.2 1.6.1 2.1.8 2.1 2.4v5h-1.9v-5c0-1.3-.2-1.6-1.5-1.6h-.4v6.6h-1.8v-14.3zm-.6 6.2h.4c1.2 0 1.4-.4 1.4-1.6v-1.6c0-1.2-.3-1.6-1.4-1.6h-.4z"/><path d="m78.8 12.1v1.5h-1.7v12.7h-1.9v-12.7h-1.7v-1.5z"/><path d="m81.3 12.1v14.3h-1.9v-14.3z"/><path d="m87.2 12.1v1.5h-2.4v4.7h2.3v1.5h-2.3v6.6h-1.8v-14.3z"/><path d="m90.1 12.1v14.3h-1.9v-14.3z"/><path d="m95.8 12.1v1.5h-2.4v4.5h2.3v1.5h-2.3v5.2h2.6v1.5h-4.4v-14.2z"/><path d="m99.1 12.1c3 0 3.6.8 3.6 4v6.3c0 3.1-.6 4-3.6 4h-1.9v-14.3zm-.1 12.8h.4c1.2 0 1.5-.3 1.5-1.6v-8.2c0-1.2-.3-1.6-1.5-1.6h-.4z"/><path d="m7.9 145.8v-13.5h19.8v3.2h-11.8v1.9h10v3.2h-10v2.1h12.3v3.1z" fill="#fff"/><path d="m45.1 136.3c-.1-.5-.6-.7-1.2-.9s-1.3-.2-2.1-.2c-1.8 0-2.5.3-2.5.8 0 2 14 .8 14 5.7 0 3.1-4.7 4.7-11.4 4.7-6.4 0-10.6-2.1-10.8-4.5h7.6c.2.5.6.8 1.3 1.1.6.2 1.5.3 2.3.3 2 0 3.3-.3 3.3-1 0-2-14-.6-14-5.8 0-2.9 4.5-4.3 10.6-4.3 6.8 0 9.8 1.9 10.4 4.3h-7.5z" fill="#fff"/><path d="m65.2 138.2h3.1c2.5 0 3.8-.4 3.8-1.3 0-1-1.4-1.4-3.2-1.4h-3.7zm0 2.9v4.7h-8v-13.5h11.5c8.1 0 10.8 1.2 10.8 3.9 0 1.6-1.2 2.9-4.1 3.3 2.6.5 4.1.8 4.1 3.6 0 1.8-.1 2.4.8 2.4v.4h-8.1c-.2-.3-.4-1.2-.4-2.4 0-1.8-.5-2.3-4.3-2.3z" fill="#fff"/><path d="m92.3 135.5v2.3h3.3c1.6 0 2.7-.4 2.7-1.2 0-1.1-1.6-1.1-3.2-1.1zm0 4.7v2.5h3.5c2 0 3.5-.2 3.5-1.2 0-1.2-1.9-1.3-4.4-1.3zm-8 5.6v-13.5h11.6c5.5 0 9.8.7 9.8 3.4 0 1.4-1.6 2.4-3.2 2.9 2.6.4 4.1 1.6 4.1 3.1 0 3-4.2 4.1-10.5 4.1z" fill="#fff"/><path d="m18.9 66.2c-1.9 1.3-3.3 3-3.2 5.6.1 2.7 1.8 4.3 4.1 5.4-1.3 2.2-1.9 4.3-.7 6.6 1.2 2.4 3.3 3.2 5.9 3.2v1.7c-.1 4.1 3.7 6.9 7.6 5.6 1.1-.4 1.4-.1 1.8.9 1.4 4 6.2 5.2 9.4 2.3.3-.3.6-.5 1-.9 1.6 2.1 3.6 3.1 6.1 2.7 2.6-.4 3.9-2.3 4.9-4.6 2.3 1.2 4.6 1.4 6.7 0 2.2-1.5 2.7-3.7 2.5-6.2 2.5 0 4.7-.5 6.1-2.7s1-4.5-.2-6.8c2.4-.9 4.1-2.4 4.5-5s-.9-4.5-2.8-6c.2-.2.2-.4.3-.5 3.5-3.2 2-9.2-2.6-10.1-.8-.2-.7-.6-.6-1.2.2-1.1.4-2.3.2-3.4-.6-3-3-4.5-6.4-4.3-.9.1-1.3-.1-1.4-1.1-.3-3.1-2.8-5.3-5.9-5.1-1.3.1-2.6.7-4.1 1.1-1.1-1.9-2.6-3.5-5.3-3.6s-4.4 1.3-5.8 3.6c-2-1.7-4.1-2.4-6.6-1.4s-3.5 3-3.8 5.6c-.4-.1-.6-.1-.8-.2-5.2-1.1-8.4 3.3-7.1 7.3.2.7-.1.9-.8 1.1-3.5.8-5.3 3.4-4.6 6.8.2 1.3.9 2.4 1.6 3.6z" fill="#fff"/><path d="m78.2 72.9c0 .2-.1.3-.1.4-.1 2.8-1.2 5-3.3 6.8-.3.2-.4.9-.3 1.4.6 4.3-1.8 8.2-6 9.5-.4.1-.7.4-1.1.6.3.3.6.7.9.9 6.3 3.4 12.6 6.7 18.8 10.1.3.2.7.3 1 .5 0-3.9 0-7.6 0-11.4 0-.5.4-1.1.8-1.4 1.4-1 2.9-1.9 4.3-2.8 1.7-1.1 3.5-2.3 5.4-3.5-6.8-3.9-13.4-7.5-20.4-11.1z" fill="#fff"/><path d="m54.6 123.4c.4-.4.6-.7.9-1 2.1-2.7 4.2-5.3 6.4-8 .3-.3.8-.7 1.2-.7 1.5.1 2.9.3 4.4.5 2.4.3 4.7.5 7.4.8-2.9-6.9-5.6-13.7-8.4-20.5-2.7 3.2-4.6 4-8.6 3.8-.4 0-1 .3-1.3.7-1.8 2.1-4 3.2-6.7 3.1-1.4-.1-2.7-.5-4.2-.8 2.9 7.4 5.9 14.7 8.9 22.1z" fill="#fff"/><path d="m98.6 114.8c-2.6 0-4.6 2-4.6 4.6 0 2.5 2.1 4.5 4.6 4.5 2.6 0 4.5-2 4.5-4.6 0-2.5-2-4.5-4.5-4.5z" fill="#fff"/><path d="m18.9 66.2c-.6-1.3-1.4-2.4-1.6-3.6-.7-3.4 1.2-6 4.6-6.8.7-.2 1-.4.8-1.1-1.3-4 1.9-8.4 7.1-7.3.2 0 .5.1.8.2.3-2.5 1.3-4.6 3.8-5.6 2.4-.9 4.5-.2 6.6 1.4 1.4-2.3 3.1-3.7 5.8-3.6 2.6.1 4.2 1.7 5.3 3.6 1.5-.4 2.8-1 4.1-1.1 3.1-.2 5.6 2 5.9 5.1.1 1.1.5 1.2 1.4 1.1 3.4-.2 5.8 1.3 6.4 4.3.2 1.1 0 2.3-.2 3.4-.1.6-.2 1.1.6 1.2 4.6 1 6.2 6.9 2.6 10.1-.1.1-.2.3-.3.5 2 1.5 3.2 3.4 2.8 6s-2.1 4-4.5 5c1.2 2.3 1.6 4.5.2 6.8-1.4 2.2-3.6 2.8-6.1 2.7.2 2.5-.3 4.7-2.5 6.2-2.2 1.4-4.4 1.2-6.7 0-.9 2.3-2.2 4.2-4.9 4.6-2.6.4-4.5-.6-6.1-2.7-.4.3-.7.6-1 .9-3.2 2.9-8 1.7-9.4-2.3-.4-1-.7-1.3-1.8-.9-3.9 1.3-7.7-1.5-7.6-5.6 0-.5 0-1 0-1.7-2.5 0-4.6-.8-5.9-3.2-1.2-2.3-.6-4.5.7-6.6-2.3-1.1-4-2.7-4.1-5.4-.1-2.6 1.3-4.3 3.2-5.6zm27 28.7c13.9 0 25.1-11.1 25.2-25 .1-13.8-11.3-25.1-25.2-25.1-13.7 0-25 11.2-25 24.9-.1 13.9 11.1 25.2 25 25.2z" fill="#085ea9"/><path d="m78.2 72.9c6.9 3.7 13.6 7.3 20.5 11-1.9 1.2-3.6 2.4-5.4 3.5-1.4.9-2.9 1.8-4.3 2.8-.4.3-.8.9-.8 1.4-.1 3.8 0 7.5 0 11.4-.3-.1-.7-.3-1-.5-6.3-3.4-12.6-6.7-18.8-10.1-.4-.2-.6-.6-.9-.9.4-.2.7-.5 1.1-.6 4.1-1.3 6.6-5.2 6-9.5-.1-.4 0-1.1.3-1.4 2.1-1.8 3.2-4 3.3-6.8 0 0 0-.1 0-.3z" fill="#085ea9"/><path d="m54.6 123.4c-3.1-7.4-6.1-14.7-9.1-22 1.5.3 2.8.7 4.2.8 2.7.1 4.9-1 6.7-3.1.3-.4.9-.7 1.3-.7 4 .2 5.9-.6 8.6-3.8 2.8 6.8 5.6 13.6 8.4 20.5-2.6-.3-5-.6-7.4-.8-1.5-.2-2.9-.4-4.4-.5-.4 0-1 .3-1.2.7-2.2 2.6-4.3 5.3-6.4 8-.1.2-.3.5-.7.9z" fill="#085ea9"/><path d="m45.9 94.9c-13.9 0-25-11.3-25-25.3 0-13.7 11.3-24.9 25-24.9 13.9.1 25.3 11.4 25.2 25.2s-11.4 25-25.2 25zm-12-25.9c.2-2.3.4-4.4.7-6.7-2.7-1-5.1-2.3-6.9-4.7-2.1 2.6-3.9 8.3-3.6 11.3 3.3.1 6.5.1 9.8.1zm-9.9 1.9c.3 4.2 1.4 7.9 3.7 11.4 1.8-2.5 4.3-3.7 6.9-4.8-.2-2.3-.4-4.4-.7-6.6-3.3 0-6.5 0-9.9 0zm40.3-13.2c-1.7 2.2-3.9 3.5-6.4 4.5-.3.1-.5.6-.5 1 .1 1.6.3 3.3.4 4.9 0 .8.3 1.1 1.1 1.1h5.8c3.4 0 3.4 0 2.8-3.3-.4-3-1.4-5.7-3.2-8.2zm0 24.5c2.1-3.4 3.4-6.9 3.5-10.8 0-.2-.6-.7-.9-.7-2.7-.1-5.4 0-8 0-.7 0-1 .3-1 1-.1 1.7-.3 3.3-.4 5 0 .3.3.8.5 1 2.5 1 4.7 2.3 6.3 4.5zm-11.1-28.1c-2.4.5-4.3.8-6.2 1.3-.3.1-.7.4-.7.6-.1 2.1 0 4.2 0 6.7 3.2-.4 6.2-.8 9.5-1.3-1-2.8-1.8-5.2-2.6-7.3zm2.6 24.7c-3.2-.9-6.2-1.4-9.4-1.3v6.7c2.2.5 4.4 1.1 6.8 1.7.8-2.2 1.6-4.6 2.6-7.1zm-11-23.2c-2-.5-3.8-1-5.9-1.6-.8 2.3-1.7 4.6-2.6 7.3 3.1.5 5.8.9 8.6 1.3-.1-2.6-.1-4.9-.1-7zm-.1 28.7c0-2.2 0-4.5 0-7-2.8.4-5.5.8-8.5 1.3 1 2.7 1.9 5.1 2.7 7.3 2.1-.6 3.9-1.1 5.8-1.6zm1.7-15.2h9.4c.2 0 .7-.5.6-.7-.1-1.6-.2-3.2-.4-4.8 0-.2-.5-.5-.7-.5-3 .4-5.9.9-8.9 1.4zm0 6.3c3 .5 5.9.9 8.7 1.4.7.1 1 0 1-.7.1-1.4.3-2.7.4-4.1.1-.9-.2-1.3-1.2-1.3-2.6.1-5.3 0-7.9 0-.3 0-.7.1-1 .1zm-10.4-12.4c-.2 2-.4 3.9-.5 6h9.3c0-1.6 0-3.2 0-4.7-3-.4-5.8-.8-8.8-1.3zm0 13.8c3-.5 5.9-.9 8.8-1.3 0-1.5 0-3 0-4.6-3.1 0-6.1 0-9.3 0 .1 2.1.3 4 .5 5.9zm21.2-16.2c2.2-.7 4.3-1.8 5.8-3.7.2-.3.2-1-.1-1.2-1.7-1.6-3.4-3.1-5.2-4.6-.2-.2-.8-.2-1 0-.8.6-1.6 1.4-2.2 2 .8 2.4 1.7 4.9 2.7 7.5zm-2.7 26.3c.7.6 1.4 1.3 2.2 1.9.2.2.8.2 1 .1 1.8-1.5 3.6-3.1 5.3-4.7.2-.2.3-.8.1-1-1.5-2.1-3.6-3.1-5.9-3.9-1 2.6-1.9 5.1-2.7 7.6zm-19.6-26.3c.6-1.8 1.1-3.4 1.6-4.9.3-.9 1.1-1.8.9-2.5-.1-.7-1.3-1.2-1.9-1.9-.5-.6-.9-.7-1.5-.2-1.6 1.5-3.3 2.9-4.9 4.4-.6.6-.5 1.1 0 1.6 1.7 1.7 3.6 2.7 5.8 3.5zm-.1 18.7c-2.1.8-4.1 1.7-5.6 3.5-.3.3-.5 1-.3 1.2 1.6 2.1 3.6 3.9 5.9 5.2 1-.9 1.8-1.6 2.7-2.3-.9-2.5-1.7-5-2.7-7.6zm11.6 12.1c2.6-.2 4.2-1.9 5.7-3.9-1.9-.8-3.7-1.4-5.7-1.1zm0-42.9v5.3c1.9-.4 3.7-.8 5.7-1.3-1.5-2.2-3.1-3.7-5.7-4zm-1.6.1c-2.1.6-3.5 2-4.9 3.9 1.7.4 3.2.8 4.9 1.2 0-1.8 0-3.4 0-5.1zm-4.9 38.8c1.4 1.9 2.8 3.3 4.9 3.9 0-1.7 0-3.3 0-5.1-1.7.4-3.2.7-4.9 1.2zm-3.7-37.6c.9.7 1.6 1.3 2.3 1.8 1.1-1.2 2-2.3 3-3.4 0-.1-.1-.1-.1-.2-1.6.5-3.3 1.1-5.2 1.8zm0 40.3c2 .7 3.6 1.2 5.2 1.8 0-.1.1-.1.1-.2-1-1.1-2-2.2-3-3.4-.7.5-1.3 1-2.3 1.8zm17.4-1.8c-1.1 1.2-2.1 2.3-3.1 3.4 0 .1 0 .1.1.2 1.7-.6 3.3-1.1 5.2-1.8-1-.7-1.6-1.3-2.2-1.8zm0-36.7c.7-.5 1.3-1.1 2.2-1.8-1.9-.7-3.6-1.2-5.2-1.8v.2c.9 1.1 1.9 2.1 3 3.4z" fill="#fff"/><g fill="#085ea9"><path d="m33.9 69c-3.3 0-6.5 0-9.8 0-.3-3 1.5-8.7 3.6-11.3 1.8 2.3 4.2 3.6 6.9 4.7-.4 2.2-.5 4.4-.7 6.6z"/><path d="m24 70.9h9.9c.2 2.2.4 4.3.7 6.6-2.6 1-5.1 2.3-6.9 4.8-2.5-3.6-3.5-7.3-3.7-11.4z"/><path d="m64.3 57.7c1.7 2.5 2.7 5.2 3.3 8.1.5 3.3.5 3.3-2.9 3.3-1.9 0-3.8 0-5.8 0-.8 0-1.1-.3-1.1-1.1-.1-1.6-.3-3.3-.4-4.9 0-.3.2-.9.5-1 2.6-.9 4.8-2.2 6.4-4.4z"/><path d="m64.3 82.2c-1.7-2.2-3.9-3.5-6.4-4.5-.3-.1-.5-.6-.5-1 .1-1.7.3-3.3.4-5 0-.7.3-1 1-1h8c.3 0 .9.4.9.7.1 4-1.2 7.5-3.4 10.8z"/><path d="m53.2 54.1c.8 2.1 1.6 4.5 2.6 7.2-3.3.5-6.3.9-9.5 1.3 0-2.4 0-4.6 0-6.7 0-.2.4-.6.7-.6 2-.4 3.8-.7 6.2-1.2z"/><path d="m55.8 78.8c-.9 2.5-1.8 4.9-2.5 7.1-2.5-.6-4.6-1.1-6.8-1.7 0-2.1 0-4.4 0-6.7 3-.1 6.1.4 9.3 1.3z"/><path d="m44.8 55.6v7c-2.8-.4-5.5-.8-8.6-1.3 1-2.7 1.8-5.1 2.6-7.3 2.1.5 4 1 6 1.6z"/><path d="m44.7 84.3c-1.9.5-3.7 1-5.9 1.6-.8-2.2-1.8-4.6-2.8-7.3 3-.5 5.7-.9 8.6-1.3.1 2.6.1 4.8.1 7z"/><path d="m46.4 69.1c0-1.7 0-3.2 0-4.6 3-.5 6-1 8.9-1.4.2 0 .7.3.7.5.2 1.6.4 3.2.4 4.8 0 .2-.4.7-.6.7-3.1 0-6.2 0-9.4 0z"/><path d="m46.4 75.4c0-1.4 0-2.9 0-4.5.3 0 .7-.1 1-.1h7.9c1 0 1.3.4 1.2 1.3-.2 1.3-.3 2.7-.4 4.1-.1.7-.4.8-1 .7-2.9-.6-5.7-1-8.7-1.5z"/><path d="m36 63c3 .5 5.8.9 8.8 1.3v4.7c-3.1 0-6.1 0-9.3 0 .1-2 .3-4 .5-6z"/><path d="m36 76.8c-.2-1.9-.4-3.9-.6-5.9h9.3v4.6c-2.8.4-5.7.9-8.7 1.3z"/><path d="m57.2 60.6c-.9-2.6-1.8-5-2.7-7.5.7-.6 1.4-1.4 2.2-2 .2-.2.8-.2 1 0 1.8 1.5 3.5 3 5.2 4.6.2.2.3.9.1 1.2-1.5 1.9-3.7 2.9-5.8 3.7z"/><path d="m54.5 86.9c.9-2.5 1.8-4.9 2.7-7.5 2.3.8 4.4 1.8 5.9 3.9.1.2.1.8-.1 1-1.7 1.6-3.5 3.1-5.3 4.7-.2.2-.8.1-1-.1-.9-.7-1.5-1.4-2.2-2z"/><path d="m34.9 60.6c-2.2-.8-4.1-1.8-5.6-3.5-.5-.6-.7-1.1 0-1.6 1.6-1.5 3.3-2.9 4.9-4.4.6-.5 1-.4 1.5.2.6.7 1.7 1.2 1.9 1.9.1.7-.6 1.6-.9 2.5-.7 1.6-1.2 3.2-1.8 4.9z"/><path d="m34.8 79.3c.9 2.6 1.8 5.1 2.7 7.6-.8.7-1.7 1.5-2.7 2.3-2.3-1.3-4.3-3.1-5.9-5.2-.2-.2.1-.9.3-1.2 1.5-1.8 3.5-2.7 5.6-3.5z"/><path d="m46.4 91.4c0-1.7 0-3.3 0-5 2-.2 3.8.4 5.7 1.1-1.5 2-3.1 3.7-5.7 3.9z"/><path d="m46.4 48.5c2.6.3 4.2 1.9 5.7 4.1-2 .4-3.8.8-5.7 1.3 0-2 0-3.7 0-5.4z"/><path d="m44.8 48.6v5.1c-1.6-.4-3.1-.8-4.9-1.2 1.3-1.9 2.7-3.3 4.9-3.9z"/><path d="m39.9 87.4c1.8-.4 3.2-.8 4.9-1.2v5.1c-2.1-.6-3.6-2-4.9-3.9z"/><path d="m36.2 49.8c1.9-.7 3.5-1.2 5.2-1.8 0 .1.1.1.1.2-1 1.1-1.9 2.1-3 3.4-.6-.6-1.3-1.1-2.3-1.8z"/><path d="m36.2 90.1c1-.8 1.6-1.3 2.3-1.8 1.1 1.2 2 2.3 3 3.4 0 .1-.1.1-.1.2-1.6-.6-3.2-1.1-5.2-1.8z"/><path d="m53.6 88.3c.6.5 1.3 1 2.3 1.8-1.9.7-3.6 1.2-5.2 1.8 0-.1 0-.1-.1-.2.9-1.1 1.9-2.2 3-3.4z"/><path d="m53.6 51.6c-1.1-1.2-2.1-2.3-3-3.4 0-.1 0-.1 0-.2 1.6.6 3.3 1.1 5.2 1.8-1 .7-1.6 1.2-2.2 1.8z"/></g><path d="m97.5 119c0-.7.1-1.1.1-1.7.7.2 1.2.3 1.8.5.1 0 .1.5 0 .5-.6.3-1.2.4-1.9.7z" fill="#fff"/><path d="m98.5 118.8c.8 0 1-.3 1-.7s-.2-.6-.9-.6h-1v1.3zm-.9.8v2.2h-.9v-5.1h1.8c1 0 2 .3 2 1.4 0 .6-.4 1-1.1 1.2.7.1.8.5.9 1s.1 1 .3 1.5h-1.1c-.1-.3-.1-.6-.2-.9-.1-.4-.1-.8-.3-1.1-.2-.2-.5-.2-.8-.2zm4.7-.3c0-2-1.7-3.5-3.8-3.5s-3.8 1.6-3.8 3.5c0 2 1.7 3.6 3.8 3.6 2.2-.1 3.8-1.7 3.8-3.6m-8.5 0c0-2.4 2.1-4.3 4.7-4.3s4.6 1.9 4.6 4.3-2.1 4.3-4.6 4.3-4.7-2-4.7-4.3" fill="#151011"/></svg>